<svg xmlns="http://www.w3.org/2000/svg"  viewBox="0 0 100 100" width="50px" height="50px"><path d="M 29.126953 15.605469 C 28.051718 15.600454 26.970063 15.604692 25.880859 15.621094 A 2.0002 2.0002 0 0 0 25.865234 15.621094 C 23.709102 15.668864 21.659299 16.573036 20.171875 18.134766 C 18.685408 19.69549 17.879825 21.78746 17.935547 23.943359 L 17.933594 23.921875 C 18.191019 40.665379 16.324622 57.994747 17.263672 74.576172 A 2.0002 2.0002 0 0 0 17.265625 74.605469 C 17.574282 78.986066 21.119616 82.483182 25.503906 82.732422 A 2.0002 2.0002 0 0 0 25.505859 82.732422 C 43.881066 83.768648 61.098009 83.94761 76.640625 82.886719 A 2.0002 2.0002 0 0 0 76.65625 82.886719 C 81.137912 82.549023 84.574665 78.665454 84.365234 74.175781 A 2.0002 2.0002 0 0 0 84.363281 74.15625 C 83.742931 63.086612 84.039765 63.442509 84.425781 59.763672 C 84.811769 56.08511 85.240194 48.904093 84.837891 23.6875 C 84.809051 21.642511 83.926562 19.6999 82.40625 18.332031 C 80.887348 16.965431 78.865715 16.292966 76.832031 16.476562 L 76.826172 16.476562 C 59.934701 17.965181 45.255481 15.680688 29.126953 15.605469 z M 29.119141 19.605469 C 41.035875 19.670036 52.43578 20.996405 64.820312 20.980469 L 64.191406 21.609375 A 1.0001 1.0001 0 1 0 65.605469 23.023438 L 67.673828 20.953125 C 68.340473 20.940509 69.01048 20.924111 69.683594 20.902344 L 68.876953 21.707031 A 1.0012745 1.0012745 0 0 0 70.292969 23.123047 L 72.642578 20.771484 C 73.959061 20.701228 75.287407 20.614689 76.632812 20.501953 L 73.292969 23.84375 A 1.0001 1.0001 0 1 0 74.707031 25.257812 L 79.099609 20.865234 C 79.323609 20.988301 79.536889 21.132471 79.730469 21.306641 C 80.249165 21.773327 80.604354 22.382684 80.755859 23.050781 L 77.3125 26.494141 A 1.0005836 1.0005836 0 1 0 78.726562 27.910156 L 80.865234 25.771484 C 80.880613 26.820442 80.891894 27.786554 80.904297 28.769531 L 79.169922 30.152344 A 1.0001 1.0001 0 1 0 80.416016 31.716797 L 80.9375 31.300781 C 80.948121 32.287057 80.955309 33.188444 80.962891 34.105469 L 79.539062 35.238281 A 1.0001 1.0001 0 1 0 80.785156 36.802734 L 80.980469 36.648438 C 81.063501 51.402101 80.736404 56.592104 80.447266 59.347656 C 80.085532 62.795069 79.746442 63.234497 80.371094 74.380859 L 80.369141 74.361328 C 80.47961 76.729508 78.724421 78.715068 76.361328 78.896484 C 66.283878 79.584057 55.43395 79.735368 43.996094 79.470703 L 44.892578 78.578125 A 1.0001 1.0001 0 0 0 44.171875 76.859375 A 1.0001 1.0001 0 0 0 43.482422 77.160156 L 41.230469 79.396484 C 39.761532 79.354181 38.282592 79.305597 36.794922 79.25 L 38.705078 77.351562 A 1.0001 1.0001 0 0 0 37.984375 75.632812 A 1.0001 1.0001 0 0 0 37.294922 75.933594 L 34.064453 79.144531 C 32.688839 79.086251 31.302632 79.020088 29.912109 78.951172 L 32.625 76.78125 A 1.0001 1.0001 0 0 0 31.992188 74.992188 A 1.0001 1.0001 0 0 0 31.375 75.21875 L 26.900391 78.796875 C 26.508904 78.775532 26.125018 78.76042 25.732422 78.738281 L 25.730469 78.738281 C 24.377492 78.660826 23.199576 78.020312 22.384766 77.058594 L 26.783203 75.078125 A 1.0001 1.0001 0 0 0 26.417969 73.162109 A 1.0001 1.0001 0 0 0 25.962891 73.255859 L 21.433594 75.294922 C 21.346044 74.984627 21.281784 74.664111 21.257812 74.330078 C 21.181327 72.975852 21.13221 71.610173 21.091797 70.240234 L 26.568359 69.152344 A 1.0001 1.0001 0 0 0 26.345703 67.169922 A 1.0001 1.0001 0 0 0 26.177734 67.189453 L 21.037109 68.210938 C 21.013574 66.901647 21.022036 65.577172 21.023438 64.255859 A 1.000202 1.000202 0 0 0 21.039062 64.253906 L 25.587891 63.486328 A 1.0001 1.0001 0 0 0 25.423828 61.498047 A 1.0001 1.0001 0 0 0 25.255859 61.515625 L 21.015625 62.228516 C 21.026858 61.012494 21.059898 59.78492 21.085938 58.560547 L 23.478516 58.423828 A 1.0001 1.0001 0 0 0 23.433594 56.425781 A 1.0001 1.0001 0 0 0 23.363281 56.427734 L 21.125 56.556641 C 21.152628 55.512612 21.186443 54.462968 21.220703 53.414062 L 23.302734 53.294922 A 1.0001 1.0001 0 0 0 23.257812 51.296875 A 1.0001 1.0001 0 0 0 23.1875 51.298828 L 21.287109 51.408203 C 21.609616 42.305564 22.07496 33.054163 21.933594 23.859375 A 2.0002 2.0002 0 0 0 21.933594 23.839844 C 21.905314 22.745743 22.312826 21.687807 23.068359 20.894531 C 23.822488 20.10273 24.859972 19.643874 25.953125 19.619141 C 27.013467 19.603275 28.067958 19.599773 29.119141 19.605469 z M 34.996094 29.617188 A 1 1 0 0 0 34.996094 31.617188 A 1 1 0 0 0 34.996094 29.617188 z M 43.1875 29.617188 A 1 1 0 0 0 43.1875 31.617188 A 1 1 0 0 0 43.1875 29.617188 z M 39.996094 34.021484 A 1 1 0 0 0 39.996094 36.021484 A 1 1 0 0 0 39.996094 34.021484 z M 72.082031 36.988281 A 2.0002 2.0002 0 0 0 70.673828 37.509766 C 62.299302 44.932237 50.430493 59.033445 48.068359 61.853516 L 36.193359 46.763672 A 2.0002 2.0002 0 1 0 33.048828 49.236328 L 46.427734 66.236328 A 2.0002 2.0002 0 0 0 49.537109 66.28125 C 49.537109 66.28125 64.684402 48.163239 73.326172 40.503906 A 2.0002 2.0002 0 0 0 72.082031 36.988281 z"/></svg>